<svg width="34" height="29" viewBox="0 0 34 29" fill="none" xmlns="http://www.w3.org/2000/svg">
<path fill-rule="evenodd" clip-rule="evenodd" d="M0.384139 10.8443C0.505598 10.7226 0.649886 10.626 0.80874 10.5601C0.967593 10.4941 1.13789 10.4602 1.30988 10.4602C1.48186 10.4602 1.65216 10.4941 1.81101 10.5601C1.96987 10.626 2.11416 10.7226 2.23561 10.8443L17.0003 25.6117L31.7651 10.8443C32.0106 10.5988 32.3436 10.4609 32.6908 10.4609C33.038 10.4609 33.371 10.5988 33.6165 10.8443C33.8621 11.0899 34 11.4229 34 11.7701C34 12.1173 33.8621 12.4503 33.6165 12.6958L17.9261 28.3863C17.8046 28.5081 17.6603 28.6047 17.5015 28.6706C17.3426 28.7365 17.1723 28.7704 17.0003 28.7704C16.8284 28.7704 16.6581 28.7365 16.4992 28.6706C16.3404 28.6047 16.1961 28.5081 16.0746 28.3863L0.384139 12.6958C0.262372 12.5744 0.165764 12.4301 0.0998471 12.2712C0.0339303 12.1124 0 11.9421 0 11.7701C0 11.5981 0.0339303 11.4278 0.0998471 11.2689C0.165764 11.1101 0.262372 10.9658 0.384139 10.8443V10.8443Z" fill="#FF9710"/>
<path fill-rule="evenodd" clip-rule="evenodd" d="M0.384139 0.384139C0.505598 0.262372 0.649886 0.165764 0.80874 0.0998471C0.967593 0.0339303 1.13789 0 1.30988 0C1.48186 0 1.65216 0.0339303 1.81101 0.0998471C1.96987 0.165764 2.11416 0.262372 2.23561 0.384139L17.0003 15.1515L31.7651 0.384139C31.8866 0.262569 32.031 0.166135 32.1898 0.100342C32.3486 0.0345491 32.5189 0.000685831 32.6908 0.000685831C32.8627 0.000685831 33.033 0.0345491 33.1918 0.100342C33.3507 0.166135 33.495 0.262569 33.6165 0.384139C33.7381 0.505708 33.8346 0.650032 33.9003 0.808871C33.9661 0.967709 34 1.13795 34 1.30988C34 1.4818 33.9661 1.65204 33.9003 1.81088C33.8346 1.96972 33.7381 2.11404 33.6165 2.23561L17.9261 17.9261C17.8046 18.0478 17.6603 18.1445 17.5015 18.2104C17.3426 18.2763 17.1723 18.3102 17.0003 18.3102C16.8284 18.3102 16.6581 18.2763 16.4992 18.2104C16.3404 18.1445 16.1961 18.0478 16.0746 17.9261L0.384139 2.23561C0.262372 2.11415 0.165764 1.96987 0.0998471 1.81101C0.0339303 1.65216 0 1.48186 0 1.30988C0 1.13789 0.0339303 0.967592 0.0998471 0.808739C0.165764 0.649886 0.262372 0.505598 0.384139 0.384139V0.384139Z" fill="#FF9710"/>
</svg>
