<svg width="188" height="68" viewBox="0 0 188 68" fill="none" xmlns="http://www.w3.org/2000/svg">
<path d="M38.2653 61.8323C37.091 63.249 35.623 64.3622 33.9592 65.0706C32.2955 65.779 30.4361 66.285 28.2831 66.4874C26.13 66.6898 23.6834 66.791 20.9432 66.791C18.2029 66.791 15.5606 66.5886 13.0161 66.1838C10.4716 65.779 8.31855 65.0706 6.36124 64.1598C4.40394 63.2491 2.93595 61.9335 1.76156 60.4155C0.58718 58.8975 0 56.8735 0 54.546C0 52.2184 0.685039 50.1944 2.15302 48.3728C3.52313 46.5513 6.06764 44.9321 9.68866 43.4141C7.43776 42.6045 5.57832 41.3901 3.81674 39.7709C2.15303 38.1518 1.27224 36.3302 1.27224 34.205C1.27224 32.0798 1.85944 30.3595 2.93596 28.8415C4.11034 27.3235 5.57832 26.1091 7.3399 25.0971C9.19934 24.0851 11.2545 23.3767 13.6033 22.8707C15.952 22.3648 18.3008 22.1624 20.8453 22.1624C22.8026 22.1624 24.7599 22.3647 26.8151 22.7695C28.8703 23.1743 30.6318 23.7815 32.2955 24.5911C33.9593 25.4007 35.2315 26.2103 36.2102 27.2223C37.1888 28.2343 37.6781 29.3475 37.6781 30.4607C37.6781 31.3714 37.1888 32.2822 36.1123 32.9906C35.0358 33.699 33.9593 34.1038 32.7849 34.1038C31.219 34.1038 30.0446 33.8002 29.3596 33.193C28.5767 32.5858 27.7937 31.5738 26.8151 30.0559C25.9343 28.5379 24.9557 27.4247 23.977 26.7163C22.9983 26.0079 21.4325 25.6031 19.1816 25.6031C18.203 25.6031 17.2243 25.8055 16.2456 26.1091C15.267 26.4127 14.4841 26.9187 13.7011 27.6271C12.9182 28.3355 12.331 29.1451 11.7438 30.0559C11.2545 31.0678 10.9609 32.181 10.9609 33.4966C10.9609 36.6338 11.9395 38.759 13.8969 39.8721C15.8542 40.9853 18.5944 41.4913 21.9218 41.4913C22.8026 41.4913 23.5855 41.4913 24.3685 41.4913C25.1514 41.4913 26.0322 41.4913 27.2065 41.4913C30.3382 41.4913 31.9041 42.1997 31.9041 43.5153C31.9041 45.1345 30.6318 45.9441 28.0873 45.9441C27.9895 45.9441 27.598 45.9441 27.1087 45.9441C26.6193 45.9441 25.9343 45.8429 25.1514 45.8429C23.4877 45.6405 22.2154 45.5393 21.2368 45.5393C19.9645 45.5393 18.6923 45.7417 17.5179 46.1465C16.3435 46.5513 15.267 47.1584 14.3862 47.8668C13.4075 48.5752 12.7225 49.3848 12.2332 50.3968C11.7438 51.4088 11.4502 52.3196 11.4502 53.3316C11.4502 55.8615 12.5268 57.9867 14.5819 59.7071C16.6371 61.5287 20.0624 62.3383 24.7599 62.3383C26.3258 62.2371 27.6959 62.1359 28.7724 62.0347C29.9468 61.8323 31.0233 61.5287 32.0019 61.1239C32.9806 60.6179 33.9593 60.0107 34.8401 59.2011C35.7208 58.3915 36.6995 57.1771 37.776 55.7603H41.2013C40.5162 58.3915 39.5376 60.4155 38.2653 61.8323Z" fill="#BD9324"/>
<path d="M87.4926 65.6777H47.8572V64.2609C50.2059 63.9573 51.9675 63.5525 53.2398 62.9454C54.512 62.3382 55.0992 61.225 55.0992 59.5046V29.7522C55.0992 28.8414 54.9035 28.133 54.6099 27.627C54.2184 27.121 53.827 26.8174 53.2398 26.615C52.6526 26.4126 52.0654 26.2102 51.2825 26.109C50.4995 26.0078 49.8145 25.9066 49.0316 25.8054V24.4899H68.6046V25.8054C67.9196 25.9066 67.1366 26.0078 66.4516 26.0078C65.7665 26.109 65.0815 26.2102 64.5921 26.5138C64.0049 26.7162 63.6135 27.121 63.222 27.627C62.8306 28.133 62.7327 28.8414 62.7327 29.7522V62.4394H74.6722C76.5317 62.4394 78.0975 62.3382 79.4676 62.237C80.8378 62.1358 82.0121 61.8322 82.9908 61.3262C83.9694 60.8202 84.7524 60.1118 85.4374 59.0998C86.1225 58.0878 86.6118 56.7722 87.0033 55.1531H88.667L87.4926 65.6777Z" fill="#BD9324"/>
<path d="M111.175 22.4662V54.3438C111.175 56.8738 111.762 58.8978 112.839 60.3145C113.915 61.8325 115.188 62.5409 116.558 62.5409C117.83 62.5409 119.004 61.9337 120.081 60.8205C121.157 59.7073 121.745 58.0882 121.843 56.1654H124.191C124.191 58.493 123.604 60.6181 122.528 62.2373C121.451 63.9577 120.179 65.1721 118.515 65.9817C116.949 66.7913 115.188 67.1961 113.426 67.1961C111.665 67.1961 110.001 66.7913 108.337 66.0829C106.673 65.2733 105.303 64.2613 104.325 62.8445C103.248 61.4277 102.759 59.9097 102.759 58.1894V35.8244C102.759 32.7885 102.074 30.9669 100.606 30.1573C99.1378 29.3477 97.1805 29.0441 94.636 29.0441V27.0201C97.572 26.5141 103.052 24.9962 111.175 22.4662Z" fill="#BD9324"/>
<path d="M188 53.6354C188 57.5821 187.511 60.8205 186.532 63.2493C185.553 65.678 183.694 66.8924 180.856 66.8924C179.681 66.8924 178.605 66.5888 177.724 65.8804C176.843 65.2732 175.963 64.3624 175.18 63.2493C174.397 62.1361 173.614 61.0229 172.929 59.6061C172.146 58.2905 171.363 56.8737 170.58 55.4569C169.797 57.2785 167.938 59.7073 165.197 62.5409C162.261 65.3744 157.955 66.7912 152.181 66.7912C145.037 66.7912 139.655 64.666 136.132 60.5169C132.608 56.2665 130.847 51.2066 130.847 45.3371C130.749 42.5035 131.238 39.6699 132.217 36.9376C133.196 34.2052 134.566 31.6752 136.425 29.4489C138.285 27.2225 140.535 25.5021 143.178 24.1865C145.82 22.8709 148.854 22.2637 152.279 22.2637C155.607 22.2637 159.13 23.3769 162.653 25.7045C165.98 27.8297 168.427 32.08 169.797 38.4555L175.865 23.3769H185.162L173.712 50.5994C173.712 51.409 173.907 52.3198 174.397 53.433C174.886 54.5462 175.473 55.6594 176.158 56.5701C176.941 57.5821 177.724 58.3917 178.605 59.1001C179.486 59.8085 180.269 60.2133 181.052 60.2133C182.03 60.2133 183.009 59.6061 183.89 58.4929C184.77 57.3797 185.456 55.6593 185.847 53.3318H188V53.6354ZM166.665 45.4383C166.176 40.5807 164.806 36.2292 162.457 32.3836C160.108 28.3357 156.683 26.4129 152.181 26.4129C149.148 26.4129 146.701 27.9309 144.939 30.9668C143.08 34.0028 142.003 38.5568 141.514 44.6287C141.514 47.361 141.808 49.891 142.297 52.1174C142.786 54.3438 143.471 56.3677 144.45 57.9869C145.331 59.6061 146.505 60.9217 147.777 61.8325C149.05 62.7433 150.616 63.2493 152.279 63.2493C154.139 63.3505 155.9 62.8445 157.662 61.5289C159.423 60.3145 160.989 58.6953 162.359 56.8737C163.729 55.0521 164.806 53.0282 165.687 51.0042C166.372 48.7778 166.665 47.0575 166.665 45.4383ZM146.701 2.12518C146.701 0.708398 147.386 0 148.658 0C150.224 0 151.986 1.41679 154.041 4.35155C156.096 7.28632 158.543 11.9415 161.576 18.317H158.934C156.292 15.4834 154.237 13.1558 152.573 11.3343C150.909 9.51269 149.735 8.09591 149.05 7.18512C147.484 5.26234 146.701 3.64316 146.701 2.12518Z" fill="#BD9324"/>
</svg>
