<svg width="126" height="43" viewBox="0 0 126 43" fill="none" xmlns="http://www.w3.org/2000/svg">
<g clip-path="url(#clip0_1_2251)">
<path d="M17.0506 7.46596C16.6274 7.46596 16.2043 7.41465 15.806 7.33768C15.4077 7.26071 15.0344 7.13243 14.7108 6.97849C14.3623 6.82456 14.0636 6.61931 13.7898 6.41406C13.516 6.18315 13.2671 5.92658 13.068 5.64437C12.8688 5.36215 12.7195 5.05427 12.6199 4.72074C12.5203 4.38721 12.4706 4.05367 12.4706 3.66883C12.4706 3.30964 12.5203 2.97611 12.6199 2.64258C12.7195 2.30904 12.8688 2.02682 13.068 1.7446C13.2671 1.46238 13.4911 1.23148 13.7898 1.00057C14.0636 0.769664 14.3872 0.59007 14.7108 0.436132C15.0593 0.282194 15.4077 0.179569 15.806 0.0769434C16.2043 -2.55556e-05 16.6274 -0.0513382 17.0506 -0.0513382C17.4737 -0.0513382 17.8969 -2.55556e-05 18.2951 0.0769434C18.6934 0.153912 19.0668 0.282194 19.3904 0.436132C19.7388 0.59007 20.0375 0.769664 20.3113 1.00057C20.5851 1.20582 20.8341 1.46238 21.0332 1.7446C21.2323 2.02682 21.3817 2.30904 21.4812 2.64258C21.5808 2.97611 21.6555 3.30964 21.6555 3.66883C21.6555 4.05367 21.6057 4.41286 21.4812 4.74639C21.3817 5.07993 21.2323 5.3878 21.0332 5.67002C20.8341 5.95224 20.61 6.2088 20.3113 6.41406C20.0375 6.64496 19.7139 6.82456 19.3904 6.97849C19.0419 7.13243 18.6685 7.26071 18.2951 7.33768C17.8969 7.41465 17.4986 7.46596 17.0506 7.46596ZM17.0506 6.85021C17.4488 6.85021 17.7973 6.77324 18.096 6.61931C18.3947 6.46537 18.6436 6.23446 18.8427 5.95224C19.0419 5.67002 19.1912 5.33649 19.3157 4.95164C19.4152 4.5668 19.465 4.13064 19.465 3.69448C19.465 3.23267 19.4152 2.82217 19.3157 2.46298C19.2161 2.07814 19.0668 1.77026 18.8427 1.48804C18.6436 1.20582 18.3947 1.00057 18.096 0.846633C17.7973 0.692695 17.4488 0.615726 17.0506 0.615726C16.6523 0.615726 16.3038 0.692695 16.0051 0.846633C15.7064 1.00057 15.4575 1.20582 15.2584 1.48804C15.0593 1.77026 14.9099 2.07814 14.8104 2.46298C14.7108 2.84783 14.661 3.25833 14.661 3.69448C14.661 4.1563 14.7108 4.5668 14.8104 4.95164C14.9099 5.33649 15.0593 5.67002 15.2584 5.95224C15.4575 6.23446 15.7064 6.46537 16.0051 6.61931C16.3038 6.77324 16.6523 6.85021 17.0506 6.85021Z" fill="#2D2520"/>
<path d="M30.243 0.153923V0.769675H27.4551V7.31204H25.4638V0.769675H22.676V0.153923H30.243Z" fill="#2D2520"/>
<path d="M37.6855 0.153923V0.769675H33.6531V3.13006H37.0135V3.74581H33.6531V6.568H37.6855V7.31204H31.6618V0.153923H37.6855Z" fill="#2D2520"/>
<path d="M39.3532 0.153923H41.3196V6.568H45.4516V7.31204H39.3532V0.153923Z" fill="#2D2520"/>
<path d="M5.25204 9.36455L5.82454 10.5447L7.094 10.7243L6.17302 11.648L6.39705 12.9564L5.25204 12.3407L4.13193 12.9564L4.33106 11.648L3.43497 10.7243L4.67954 10.5447L5.25204 9.36455Z" fill="#00A19B"/>
<path d="M10.3299 9.36455L10.9024 10.5447L12.1719 10.7243L11.2509 11.648L11.4749 12.9564L10.3299 12.3407L9.20981 12.9564L9.43383 11.648L8.51285 10.7243L9.78231 10.5447L10.3299 9.36455Z" fill="#00A19B"/>
<path d="M15.6567 9.36455L16.2292 10.5447L17.4986 10.7243L16.5776 11.648L16.8017 12.9564L15.6567 12.3407L14.5365 12.9564L14.7357 11.648L13.8396 10.7243L15.109 10.5447L15.6567 9.36455Z" fill="#00A19B"/>
<path d="M21.1826 9.36455L21.7551 10.5447L23.0245 10.7243L22.1035 11.648L22.3027 12.9564L21.1826 12.3407L20.0376 12.9564L20.2616 11.648L19.3406 10.7243L20.6101 10.5447L21.1826 9.36455Z" fill="#00A19B"/>
<path d="M16.7768 22.8855H15.9802C15.4326 21.2435 14.5863 19.9607 13.4164 19.0114C12.2465 18.0621 10.8277 17.6003 9.16002 17.6003C8.3386 17.6003 7.59186 17.7542 6.91979 18.0364C6.24773 18.3187 5.70012 18.7548 5.30186 19.2936C4.9036 19.8324 4.70446 20.4481 4.70446 21.1665C4.70446 21.577 4.77914 21.9619 4.92849 22.3724C5.07783 22.7572 5.4512 23.2447 6.0486 23.8091C6.64599 24.3736 7.54208 25.015 8.76175 25.7077C10.1308 26.4517 10.9522 26.9392 11.2509 27.1444C12.9435 28.0937 14.3374 28.966 15.4077 29.7614C16.4781 30.5824 17.2995 31.4547 17.872 32.3783C18.4445 33.3276 18.7183 34.3795 18.7183 35.5597C18.7183 36.6629 18.4694 37.6379 17.9964 38.5359C17.5235 39.4338 16.8514 40.2035 15.9554 40.8706C15.0842 41.5376 14.0138 42.0508 12.819 42.41C11.5994 42.7691 10.2801 42.9487 8.86132 42.9487C7.39273 42.9487 5.70012 42.6922 3.78348 42.2047C3.55946 42.1534 3.28566 42.1021 2.96207 42.0508C2.63848 41.9995 2.33979 41.9738 2.09087 41.9738C1.46859 41.9738 0.995654 42.256 0.721849 42.8461H0L0.174239 35.4058H0.970763C1.21968 36.8169 1.76729 37.9714 2.61359 38.9207C3.4599 39.87 4.40577 40.537 5.4761 40.9732C6.54642 41.3837 7.59186 41.6146 8.61241 41.6146C10.1059 41.6146 11.3505 41.2554 12.3212 40.5114C13.292 39.7674 13.7898 38.8694 13.7898 37.8175C13.7898 37.0991 13.5907 36.4833 13.1675 35.9446C12.7693 35.4058 12.147 34.8927 11.3256 34.3795C10.5041 33.8664 8.96088 32.9684 6.69577 31.6856C5.50099 30.9929 4.48044 30.3258 3.63414 29.6844C2.78783 29.043 2.14066 28.4273 1.66772 27.8372C1.19478 27.2471 0.871197 26.657 0.672066 26.0669C0.472936 25.4768 0.37337 24.861 0.37337 24.194C0.37337 22.9112 0.74674 21.654 1.49348 20.3968C2.24022 19.1397 3.31055 18.1391 4.67957 17.3437C6.0486 16.5484 7.61675 16.1635 9.38404 16.1635C10.2055 16.1635 11.002 16.2405 11.7487 16.3688C11.9478 16.3944 12.2217 16.4458 12.5452 16.5227C12.8688 16.5997 13.1675 16.651 13.3915 16.7023C13.9889 16.8049 14.437 16.8563 14.7108 16.8563C15.1588 16.8563 15.4824 16.7793 15.6567 16.651C15.8309 16.5227 16.0051 16.3175 16.1794 16.0866H16.8017V22.8855H16.7768Z" fill="black"/>
<path d="M30.3923 30.7363V38.741C30.3923 39.716 30.5665 40.4344 30.9399 40.9475C31.3133 41.4349 31.7613 41.7685 32.3338 41.9224C32.9063 42.0764 33.5784 42.1533 34.3251 42.1533V42.6664H20.1122V42.1533C21.058 42.1533 21.9292 41.9737 22.676 41.6145C23.4227 41.2554 23.7961 40.46 23.7961 39.1772V20.3455C23.7961 19.0883 23.4974 18.1903 22.9 17.6772C22.3026 17.1641 21.3816 16.9075 20.1122 16.9075V16.3944H35.8684C38.0588 16.3944 39.8261 16.7536 41.22 17.4976C42.614 18.2416 43.5847 19.1396 44.1572 20.2172C44.7297 21.2947 45.0284 22.4236 45.0284 23.5781C45.0284 24.9379 44.7048 26.0668 44.0826 26.9904C43.4354 27.9141 42.7135 28.6324 41.8672 29.1456C40.8965 29.7613 39.8261 30.2231 38.6313 30.531C37.4366 30.8389 35.8684 30.9928 33.8771 30.9928C32.981 30.9672 31.8111 30.8902 30.3923 30.7363ZM30.3923 18.0107V29.3252C31.0644 29.4534 31.7115 29.5304 32.3587 29.5304C33.8273 29.5304 35.047 29.2225 35.968 28.5811C36.8889 27.9397 37.5361 27.17 37.8846 26.2207C38.258 25.2715 38.4322 24.3478 38.4322 23.3986C38.4322 22.4236 38.2331 21.5 37.8348 20.679C37.4366 19.858 36.7645 19.1909 35.8435 18.6521C34.9225 18.139 33.7277 17.8568 32.2592 17.8568C31.7115 17.8311 31.0893 17.8824 30.3923 18.0107Z" fill="black"/>
<path d="M60.8345 16.1379L70.8159 38.8694C71.3635 40.024 71.9858 40.845 72.7076 41.2811C73.4295 41.7173 74.3256 41.9995 75.3959 42.1534V42.6666H61.3074V42.1534C63.224 42.0508 64.1948 41.512 64.1948 40.5371C64.1948 40.3832 64.1699 40.1779 64.0952 39.8957C64.0454 39.6135 63.9459 39.3312 63.8463 38.9977C63.7467 38.6898 63.6721 38.4846 63.6472 38.4076L60.3864 31.0699H53.0186L50.2059 38.1767C49.932 38.8181 49.8076 39.4082 49.8076 39.9213C49.8076 40.7423 50.0814 41.2811 50.6041 41.5633C51.1517 41.8456 51.774 42.0252 52.5207 42.1278V42.6409H43.6096V42.1278C44.5306 42.0508 45.4018 41.666 46.2232 40.9733C47.0198 40.2805 47.8163 39.0234 48.563 37.2018L57.0012 16.1379H60.8345ZM60.4113 31.0699L56.578 22.2185L53.0186 31.0699" fill="black"/>
<path d="M59.2663 30.9673C59.2663 30.9673 64.1699 30.6081 67.1071 28.1964L70.343 25.6307C70.343 25.6307 61.3323 26.3235 59.6895 29.4279C58.0466 32.5066 59.2663 30.9673 59.2663 30.9673Z" fill="#726762"/>
<path d="M61.4318 30.5567C61.4318 30.5567 65.6385 29.8126 69.422 31.1468L73.5539 32.5578C73.5539 32.5578 65.8376 33.9433 62.6764 31.7368C59.5401 29.5561 61.4318 30.5567 61.4318 30.5567Z" fill="#544843"/>
<path d="M49.036 32.0961C49.036 32.0961 53.1181 31.4034 54.1636 31.8139C54.6365 31.9935 55.1343 31.2751 55.1343 31.2751C55.1343 31.2751 73.1059 29.4022 74.1762 28.145L59.5401 30.685C59.5401 30.685 54.8605 30.9416 54.1636 30.9159C54.1636 30.9159 53.6906 30.9929 53.0684 31.0186C52.2967 31.0186 52.0727 31.0955 52.0727 31.0955L49.036 31.0442" fill="#827874"/>
<path d="M60.7349 30.685C60.7349 30.685 64.6677 27.0418 68.9988 27.9398C68.9988 27.9398 65.6136 31.2495 60.7349 30.685Z" fill="#E8F7F6"/>
<path d="M56.7274 31.0698C56.7274 31.0698 55.7068 29.1969 59.5899 26.6313L63.9707 24.3222C63.9707 24.3222 63.0498 28.1193 60.934 29.043L56.7274 31.0698Z" fill="#413732"/>
<path d="M57.3247 30.9416C57.3247 30.9416 58.7187 29.6844 62.7759 32.0704L66.7835 34.8926C66.7835 34.8926 62.7511 35.1235 60.9838 33.6868L57.3247 30.9416Z" fill="#342B26"/>
<path d="M61.6061 29.9666C61.6061 29.9666 61.2825 28.3502 59.2165 29.5561C58.3951 30.0179 58.2955 30.9159 59.0423 31.3777C59.6148 31.6856 61.6808 30.8902 61.6061 29.9666Z" fill="#CEF0EC"/>
<path d="M60.8593 29.8126C60.8593 29.8126 60.9091 29.2482 60.1126 29.4278C59.789 29.5047 59.6646 29.787 59.8886 30.0179C60.0379 30.1718 60.8096 30.1205 60.8593 29.8126Z" fill="#EBF8F7"/>
<path d="M87.9162 41.6402C87.6175 41.9994 87.2441 42.2816 86.821 42.4612C86.3978 42.6408 85.9249 42.7691 85.3773 42.8204C84.8297 42.8717 84.2074 42.8973 83.5104 42.8973C82.8135 42.8973 82.1414 42.846 81.4942 42.7434C80.847 42.6408 80.2994 42.4612 79.8016 42.2303C79.3038 41.9994 78.9304 41.6658 78.6317 41.281C78.333 40.8961 78.1837 40.383 78.1837 39.7929C78.1837 39.2028 78.3579 38.6897 78.7313 38.2279C79.0797 37.7661 79.7269 37.3556 80.6479 36.9707C80.0754 36.7655 79.6025 36.4576 79.1544 36.0471C78.7313 35.6366 78.5072 35.1748 78.5072 34.636C78.5072 34.0972 78.6566 33.6611 78.9304 33.2762C79.2291 32.8914 79.6025 32.5835 80.0505 32.3269C80.5235 32.0704 81.0462 31.8908 81.6436 31.7625C82.241 31.6342 82.8383 31.5829 83.4855 31.5829C83.9834 31.5829 84.4812 31.6342 85.0039 31.7368C85.5266 31.8395 85.9747 31.9934 86.3978 32.1987C86.821 32.4039 87.1446 32.6092 87.3935 32.8657C87.6424 33.1223 87.7668 33.4045 87.7668 33.6867C87.7668 33.9176 87.6424 34.1485 87.3686 34.3281C87.0948 34.5077 86.821 34.6103 86.5223 34.6103C86.124 34.6103 85.8253 34.5334 85.6511 34.3794C85.4519 34.2255 85.2528 33.9689 85.0039 33.5841C84.7799 33.1993 84.531 32.917 84.282 32.7374C84.0331 32.5578 83.6349 32.4552 83.0624 32.4552C82.8135 32.4552 82.5645 32.5065 82.3156 32.5835C82.0667 32.6605 81.8676 32.7888 81.6685 32.9683C81.4693 33.1479 81.32 33.3532 81.1706 33.5841C81.0462 33.8407 80.9715 34.1229 80.9715 34.4564C80.9715 35.2518 81.2204 35.7905 81.7182 36.0728C82.2161 36.355 82.913 36.4833 83.7593 36.4833C83.9834 36.4833 84.1825 36.4833 84.3816 36.4833C84.5807 36.4833 84.8048 36.4833 85.1035 36.4833C85.9 36.4833 86.2983 36.6629 86.2983 36.9964C86.2983 37.4069 85.9747 37.6121 85.3275 37.6121C85.3026 37.6121 85.203 37.6121 85.0786 37.6121C84.9541 37.6121 84.7799 37.5865 84.5807 37.5865C84.1576 37.5352 83.834 37.5095 83.5851 37.5095C83.2615 37.5095 82.9379 37.5608 82.6392 37.6635C82.3405 37.7661 82.0667 37.92 81.8427 38.0996C81.5938 38.2792 81.4195 38.4845 81.2951 38.741C81.1706 38.9976 81.0959 39.2285 81.0959 39.485C81.0959 40.1265 81.3698 40.6652 81.8925 41.1014C82.4152 41.5632 83.2864 41.7685 84.4812 41.7685C84.8794 41.7428 85.2279 41.7171 85.5017 41.6915C85.8004 41.6402 86.0742 41.5632 86.3231 41.4606C86.5721 41.3323 86.821 41.1784 87.045 40.9731C87.269 40.7679 87.5179 40.46 87.7917 40.1008H88.6629C88.4887 40.7679 88.2398 41.281 87.9162 41.6402Z" fill="#00A19B"/>
<path d="M100.437 42.6151H90.3556V42.2559C90.953 42.179 91.401 42.0763 91.7246 41.9224C92.0482 41.7685 92.1976 41.4863 92.1976 41.0501V33.5072C92.1976 33.2762 92.1478 33.0966 92.0731 32.9684C91.9735 32.8401 91.874 32.7631 91.7246 32.7118C91.5753 32.6605 91.4259 32.6092 91.2268 32.5835C91.0277 32.5579 90.8534 32.5322 90.6543 32.5066V32.173H95.6326V32.5066C95.4583 32.5322 95.2592 32.5579 95.085 32.5579C94.9107 32.5835 94.7365 32.6092 94.612 32.6861C94.4627 32.7375 94.3631 32.8401 94.2636 32.9684C94.164 33.0966 94.1391 33.2762 94.1391 33.5072V41.7941H97.1758C97.6488 41.7941 98.047 41.7685 98.3955 41.7428C98.744 41.7172 99.0427 41.6402 99.2916 41.5119C99.5405 41.3836 99.7397 41.204 99.9139 40.9475C100.088 40.6909 100.213 40.3574 100.312 39.9469H100.735L100.437 42.6151Z" fill="#00A19B"/>
<path d="M106.46 31.6599V39.7416C106.46 40.3831 106.61 40.8962 106.883 41.2554C107.157 41.6402 107.481 41.8198 107.829 41.8198C108.153 41.8198 108.452 41.6659 108.725 41.3837C108.999 41.1014 109.149 40.6909 109.173 40.2035H109.771C109.771 40.7936 109.621 41.3323 109.348 41.7428C109.074 42.179 108.75 42.4869 108.327 42.6921C107.929 42.8974 107.481 43 107.033 43C106.585 43 106.162 42.8974 105.738 42.7178C105.315 42.5125 104.967 42.256 104.718 41.8968C104.444 41.5376 104.32 41.1527 104.32 40.7166V35.0465C104.32 34.2769 104.145 33.815 103.772 33.6098C103.399 33.4045 102.901 33.3276 102.254 33.3276V32.8144C103 32.6862 104.394 32.3013 106.46 31.6599Z" fill="#00A19B"/>
<path d="M126 39.5621C126 40.5627 125.876 41.3837 125.627 41.9994C125.378 42.6152 124.905 42.9231 124.183 42.9231C123.884 42.9231 123.61 42.8461 123.386 42.6665C123.162 42.5126 122.938 42.2817 122.739 41.9994C122.54 41.7172 122.341 41.435 122.167 41.0758C121.968 40.7423 121.768 40.3831 121.569 40.0239C121.37 40.4857 120.897 41.1015 120.2 41.8199C119.454 42.5382 118.358 42.8974 116.89 42.8974C115.073 42.8974 113.704 42.3586 112.808 41.3067C111.912 40.2292 111.463 38.9463 111.463 37.4583C111.439 36.7399 111.563 36.0215 111.812 35.3288C112.061 34.6361 112.409 33.9947 112.882 33.4302C113.355 32.8658 113.928 32.4296 114.6 32.0961C115.272 31.7626 116.043 31.6086 116.915 31.6086C117.761 31.6086 118.657 31.8909 119.553 32.4809C120.399 33.0197 121.022 34.0973 121.37 35.7136L122.913 31.8909H125.278L122.366 38.7924C122.366 38.9977 122.416 39.2286 122.54 39.5108C122.665 39.793 122.814 40.0752 122.988 40.3061C123.187 40.5627 123.386 40.7679 123.61 40.9475C123.834 41.1271 124.034 41.2298 124.233 41.2298C124.482 41.2298 124.731 41.0758 124.955 40.7936C125.179 40.5114 125.353 40.0752 125.452 39.4851H126V39.5621ZM120.574 37.4839C120.449 36.2524 120.101 35.1492 119.503 34.1743C118.906 33.148 118.035 32.6605 116.89 32.6605C116.118 32.6605 115.496 33.0454 115.048 33.8151C114.575 34.5848 114.301 35.7393 114.177 37.2787C114.177 37.9714 114.251 38.6128 114.376 39.1772C114.5 39.7417 114.674 40.2548 114.923 40.6653C115.147 41.0758 115.446 41.4093 115.77 41.6403C116.093 41.8712 116.492 41.9994 116.915 41.9994C117.388 42.0251 117.836 41.8968 118.284 41.5633C118.732 41.2554 119.13 40.8449 119.478 40.3831C119.827 39.9213 120.101 39.4082 120.325 38.895C120.499 38.3306 120.574 37.8944 120.574 37.4839ZM115.496 26.503C115.496 26.1438 115.67 25.9642 115.994 25.9642C116.392 25.9642 116.84 26.3234 117.363 27.0675C117.885 27.8115 118.508 28.9917 119.279 30.608H118.607C117.935 29.8897 117.413 29.2996 116.989 28.8377C116.566 28.3759 116.268 28.0167 116.093 27.7858C115.695 27.2984 115.496 26.8879 115.496 26.503Z" fill="#00A19B"/>
<path d="M5.6752 3.89975V7.31204H3.6839V0.153923H5.6752V3.28399H8.91108V0.153923H10.8775V7.31204H8.91108V3.89975H5.6752Z" fill="#2D2520"/>
</g>
<defs>
<clipPath id="clip0_1_2251">
<rect width="126" height="43" fill="white"/>
</clipPath>
</defs>
</svg>
